<?xml version="1.0" encoding="UTF-8" standalone="no"?><!DOCTYPE svg PUBLIC "-//W3C//DTD SVG 1.1//EN" "http://www.w3.org/Graphics/SVG/1.1/DTD/svg11.dtd"><svg width="100%" height="100%" viewBox="0 0 174 205" version="1.1" xmlns="http://www.w3.org/2000/svg" xmlns:xlink="http://www.w3.org/1999/xlink" xml:space="preserve" style="fill-rule:evenodd;clip-rule:evenodd;stroke-linejoin:round;stroke-miterlimit:1.41421;"><g id="Pd-logo"><path d="M87,0.735l86.603,50.91l0,101.821l-86.603,50.911l-86.603,-50.911l0,-101.821l86.603,-50.91Z" style="fill:#212d40;"/><g><path d="M92.293,78.53c4.146,0 7.91,0.309 11.291,0.927c3.382,0.618 6.309,1.727 8.782,3.327c2.473,1.6 4.382,3.8 5.727,6.6c1.346,2.8 2.019,6.346 2.019,10.637c0,4.8 -0.946,8.927 -2.837,12.382c-1.891,3.454 -4.436,6.272 -7.636,8.454c-3.2,2.182 -6.927,3.782 -11.182,4.8c-4.254,1.018 -8.745,1.527 -13.473,1.527l-18.763,0l-3.818,21.819c0,2.836 3.854,4.254 11.563,4.254l-1.091,6.327l-39.163,0l0.981,-6.327c2.837,0 5.255,-0.418 7.255,-1.254c2,-0.837 3.182,-2.091 3.545,-3.764l10.364,-59.127c0,-2.764 -3.018,-4.146 -9.054,-4.146l1.2,-6.436l44.29,0Zm-19.09,9.164l-5.346,30.436l14.073,0c6.836,0 12.054,-1.564 15.654,-4.691c3.6,-3.127 5.4,-7.418 5.4,-12.873c0,-4.436 -1.109,-7.691 -3.327,-9.763c-2.218,-2.073 -5.945,-3.109 -11.182,-3.109l-15.272,0Z" style="fill:#ff8c3f;fill-rule:nonzero;"/><path d="M81.759,127.514c-4.142,0 -7.903,-0.309 -11.282,-0.926c-3.379,-0.618 -6.303,-1.726 -8.774,-3.325c-2.471,-1.599 -4.378,-3.797 -5.723,-6.594c-1.344,-2.798 -2.016,-6.341 -2.016,-10.628c0,-4.796 0.945,-8.92 2.834,-12.371c1.889,-3.452 4.433,-6.268 7.63,-8.448c3.197,-2.18 6.921,-3.779 11.172,-4.796c4.251,-1.017 8.739,-1.526 13.462,-1.526l18.748,0l3.815,-21.8c0,-2.834 -3.851,-4.251 -11.554,-4.251l1.09,-6.322l39.131,0l-0.981,6.322c-2.834,0 -5.25,0.418 -7.249,1.254c-1.998,0.835 -3.179,2.089 -3.542,3.76l-10.355,59.078c0,2.761 3.016,4.142 9.047,4.142l-1.199,6.431l-44.254,0Zm19.075,-9.156l5.341,-30.411l-14.061,0c-6.831,0 -12.045,1.562 -15.642,4.687c-3.597,3.125 -5.395,7.412 -5.395,12.862c0,4.433 1.108,7.685 3.324,9.756c2.217,2.071 5.941,3.106 11.173,3.106l15.26,0Z" style="fill:#ff8c3f;fill-rule:nonzero;"/></g></g><g><path d="M87,0.735l86.603,50.91l0,101.821l-86.603,50.911l-86.603,-50.911l0,-101.821l86.603,-50.91Z" style="fill:#212d40;"/><g><path d="M92.293,78.53c4.146,0 7.91,0.309 11.291,0.927c3.382,0.618 6.309,1.727 8.782,3.327c2.473,1.6 4.382,3.8 5.727,6.6c1.346,2.8 2.019,6.346 2.019,10.637c0,4.8 -0.946,8.927 -2.837,12.382c-1.891,3.454 -4.436,6.272 -7.636,8.454c-3.2,2.182 -6.927,3.782 -11.182,4.8c-4.254,1.018 -8.745,1.527 -13.473,1.527l-18.763,0l-3.818,21.819c0,2.836 3.854,4.254 11.563,4.254l-1.091,6.327l-39.163,0l0.981,-6.327c2.837,0 5.255,-0.418 7.255,-1.254c2,-0.837 3.182,-2.091 3.545,-3.764l10.364,-59.127c0,-2.764 -3.018,-4.146 -9.054,-4.146l1.2,-6.436l44.29,0Zm-19.09,9.164l-5.346,30.436l14.073,0c6.836,0 12.054,-1.564 15.654,-4.691c3.6,-3.127 5.4,-7.418 5.4,-12.873c0,-4.436 -1.109,-7.691 -3.327,-9.763c-2.218,-2.073 -5.945,-3.109 -11.182,-3.109l-15.272,0Z" style="fill:#ff8c3f;fill-rule:nonzero;"/><path d="M81.759,127.514c-4.142,0 -7.903,-0.309 -11.282,-0.926c-3.379,-0.618 -6.303,-1.726 -8.774,-3.325c-2.471,-1.599 -4.378,-3.797 -5.723,-6.594c-1.344,-2.798 -2.016,-6.341 -2.016,-10.628c0,-4.796 0.945,-8.92 2.834,-12.371c1.889,-3.452 4.433,-6.268 7.63,-8.448c3.197,-2.18 6.921,-3.779 11.172,-4.796c4.251,-1.017 8.739,-1.526 13.462,-1.526l18.748,0l3.815,-21.8c0,-2.834 -3.851,-4.251 -11.554,-4.251l1.09,-6.322l39.131,0l-0.981,6.322c-2.834,0 -5.25,0.418 -7.249,1.254c-1.998,0.835 -3.179,2.089 -3.542,3.76l-10.355,59.078c0,2.761 3.016,4.142 9.047,4.142l-1.199,6.431l-44.254,0Zm19.075,-9.156l5.341,-30.411l-14.061,0c-6.831,0 -12.045,1.562 -15.642,4.687c-3.597,3.125 -5.395,7.412 -5.395,12.862c0,4.433 1.108,7.685 3.324,9.756c2.217,2.071 5.941,3.106 11.173,3.106l15.26,0Z" style="fill:#ff8c3f;fill-rule:nonzero;"/></g></g></svg>